ffmpeg started on 2016-12-12 at 05:40:44
Report written to "Output/theora/results/ffmpeg/sintel5000k.log"
Command line:
Tools/ffmpeg/ffmpeg -benchmark -y -i Input/y4m/sintel.y4m -c:v libtheora -b:v 5000k -an Output/theora/encoded/sintel5000k.mkv
ffmpeg version N-82227-gdb23fde Copyright (c) 2000-2016 the FFmpeg developers
  built with gcc 5.4.0 (Ubuntu 5.4.0-6ubuntu1~16.04.2) 20160609
  configuration: --prefix=/home/jaroslav/ffmpeg_build --pkg-config-flags=--static --extra-cflags=-I/home/jaroslav/ffmpeg_build/include --extra-ldflags=-L/home/jaroslav/ffmpeg_build/lib --bindir=/home/jaroslav/bin --enable-gpl --enable-libass --enable-libfdk-aac --enable-libfreetype --enable-libmp3lame --enable-libopus --enable-libtheora --enable-libvorbis --enable-libvpx --enable-libx264 --enable-libx265 --enable-nvenc --enable-libmfx --enable-libxvid --enable-libgsm --enable-libopencore-amrnb --enable-version3 --enable-nonfree
  libavutil      55. 35.100 / 55. 35.100
  libavcodec     57. 66.101 / 57. 66.101
  libavformat    57. 57.100 / 57. 57.100
  libavdevice    57.  2.100 / 57.  2.100
  libavfilter     6. 66.100 /  6. 66.100
  libswscale      4.  3.100 /  4.  3.100
  libswresample   2.  4.100 /  2.  4.100
  libpostproc    54.  2.100 / 54.  2.100
Input #0, yuv4mpegpipe, from 'Input/y4m/sintel.y4m':
  Duration: 00:00:20.83, start: 0.000000, bitrate: 2057307 kb/s
    Stream #0:0: Video: rawvideo (I420 / 0x30323449), yuv420p(progressive), 4096x1744, SAR 1:1 DAR 256:109, 24 fps, 24 tbr, 24 tbn, 24 tbc
Output #0, matroska, to 'Output/theora/encoded/sintel5000k.mkv':
  Metadata:
    encoder         : Lavf57.57.100
    Stream #0:0: Video: theora (libtheora) (theo / 0x6F656874), yuv420p, 4096x1744 [SAR 1:1 DAR 256:109], q=2-31, 5000 kb/s, 24 fps, 1k tbn, 24 tbc
    Metadata:
      encoder         : Lavc57.66.101 libtheora
Stream mapping:
  Stream #0:0 -> #0:0 (rawvideo (native) -> theora (libtheora))
Press [q] to stop, [?] for help
frame=    3 fps=2.8 q=-0.0 size=       4kB time=00:00:00.08 bitrate= 380.5kbits/s speed=0.0794x    frame=    5 fps=3.0 q=-0.0 size=       4kB time=00:00:00.16 bitrate= 190.2kbits/s speed=0.102x    frame=    7 fps=3.1 q=-0.0 size=       4kB time=00:00:00.25 bitrate= 127.3kbits/s speed=0.112x    frame=    9 fps=3.2 q=-0.0 size=       4kB time=00:00:00.33 bitrate=  95.7kbits/s speed=0.117x    frame=   11 fps=3.2 q=-0.0 size=       4kB time=00:00:00.41 bitrate=  76.5kbits/s speed=0.121x    frame=   13 fps=3.2 q=-0.0 size=     392kB time=00:00:00.50 bitrate=6412.5kbits/s speed=0.123x    frame=   16 fps=3.3 q=-0.0 size=     392kB time=00:00:00.62 bitrate=5132.0kbits/s speed=0.13x    frame=   18 fps=3.3 q=-0.0 size=     392kB time=00:00:00.70 bitrate=4531.2kbits/s speed=0.13x    frame=   19 fps=2.3 q=-0.0 size=     392kB time=00:00:00.75 bitrate=4277.8kbits/s speed=0.0897x    frame=   20 fps=1.9 q=-0.0 size=     392kB time=00:00:00.79 bitrate=4051.3kbits/s speed=0.0738x    frame=   22 fps=1.9 q=-0.0 size=     392kB time=00:00:00.87 bitrate=3667.4kbits/s speed=0.0771x    frame=   24 fps=2.0 q=-0.0 size=     392kB time=00:00:00.95 bitrate=3350.0kbits/s speed=0.08x    frame=   27 fps=2.1 q=-0.0 size=     866kB time=00:00:01.08 bitrate=6541.6kbits/s speed=0.0851x    frame=   29 fps=2.2 q=-0.0 size=     866kB time=00:00:01.16 bitrate=6071.1kbits/s speed=0.0875x    frame=   31 fps=2.2 q=-0.0 size=     866kB time=00:00:01.25 bitrate=5668.3kbits/s speed=0.0896x    frame=   33 fps=2.3 q=-0.0 size=     866kB time=00:00:01.33 bitrate=5315.7kbits/s speed=0.0916x    frame=   35 fps=2.3 q=-0.0 size=     866kB time=00:00:01.41 bitrate=5000.8kbits/s speed=0.0934x    frame=   37 fps=2.3 q=-0.0 size=    1255kB time=00:00:01.50 bitrate=6848.7kbits/s speed=0.095x    frame=   40 fps=2.4 q=-0.0 size=    1255kB time=00:00:01.62 bitrate=6322.2kbits/s speed=0.0982x    frame=   42 fps=2.4 q=-0.0 size=    1255kB time=00:00:01.70 bitrate=6015.1kbits/s speed=0.0996x    frame=   44 fps=2.5 q=-0.0 size=    1255kB time=00:00:01.79 bitrate=5733.3kbits/s speed=0.101x    frame=   46 fps=2.5 q=-0.0 size=    1255kB time=00:00:01.87 bitrate=5479.7kbits/s speed=0.102x    frame=   48 fps=2.5 q=-0.0 size=    1255kB time=00:00:01.95 bitrate=5247.5kbits/s speed=0.103x    frame=   51 fps=2.6 q=-0.0 size=    1615kB time=00:00:02.08 bitrate=6347.8kbits/s speed=0.106x    frame=   53 fps=2.6 q=-0.0 size=    1615kB time=00:00:02.16 bitrate=6101.9kbits/s speed=0.107x    frame=   55 fps=2.6 q=-0.0 size=    1615kB time=00:00:02.25 bitrate=5876.9kbits/s speed=0.108x    frame=   57 fps=2.6 q=-0.0 size=    1615kB time=00:00:02.33 bitrate=5667.9kbits/s speed=0.108x    frame=   59 fps=2.7 q=-0.0 size=    1935kB time=00:00:02.41 bitrate=6556.1kbits/s speed=0.109x    frame=   61 fps=2.7 q=-0.0 size=    1935kB time=00:00:02.50 bitrate=6338.5kbits/s speed=0.109x    frame=   63 fps=2.7 q=-0.0 size=    1935kB time=00:00:02.58 bitrate=6134.9kbits/s speed=0.11x    frame=   65 fps=2.7 q=-0.0 size=    1935kB time=00:00:02.66 bitrate=5941.7kbits/s speed=0.111x    frame=   67 fps=2.7 q=-0.0 size=    2242kB time=00:00:02.75 bitrate=6677.1kbits/s speed=0.111x    frame=   69 fps=2.7 q=-0.0 size=    2300kB time=00:00:02.83 bitrate=6647.4kbits/s speed=0.111x    frame=   71 fps=2.7 q=-0.0 size=    2384kB time=00:00:02.91 bitrate=6693.3kbits/s speed=0.111x    frame=   73 fps=2.7 q=-0.0 size=    2442kB time=00:00:03.00 bitrate=6665.7kbits/s speed=0.112x    frame=   75 fps=2.7 q=-0.0 size=    2496kB time=00:00:03.08 bitrate=6629.2kbits/s speed=0.112x    frame=   77 fps=2.7 q=-0.0 size=    2522kB time=00:00:03.16 bitrate=6522.3kbits/s speed=0.112x    frame=   79 fps=2.7 q=-0.0 size=    2598kB time=00:00:03.25 bitrate=6547.2kbits/s speed=0.112x    frame=   81 fps=2.7 q=-0.0 size=    2626kB time=00:00:03.33 bitrate=6452.5kbits/s speed=0.112x    frame=   83 fps=2.7 q=-0.0 size=    2711kB time=00:00:03.41 bitrate=6497.0kbits/s speed=0.113x    frame=   85 fps=2.7 q=-0.0 size=    2774kB time=00:00:03.50 bitrate=6490.1kbits/s speed=0.113x    frame=   87 fps=2.7 q=-0.0 size=    2831kB time=00:00:03.58 bitrate=6470.5kbits/s speed=0.112x    frame=   89 fps=2.7 q=-0.0 size=    2892kB time=00:00:03.66 bitrate=6459.3kbits/s speed=0.112x    frame=   91 fps=2.7 q=-0.0 size=    2957kB time=00:00:03.75 bitrate=6458.8kbits/s speed=0.112x    frame=   93 fps=2.7 q=-0.0 size=    2957kB time=00:00:03.83 bitrate=6319.0kbits/s speed=0.113x    frame=   95 fps=2.7 q=-0.0 size=    2957kB time=00:00:03.91 bitrate=6183.5kbits/s speed=0.113x    frame=   97 fps=2.8 q=-0.0 size=    2957kB time=00:00:04.00 bitrate=6055.2kbits/s speed=0.113x    frame=   99 fps=2.8 q=-0.0 size=    2957kB time=00:00:04.08 bitrate=5932.2kbits/s speed=0.114x    frame=  101 fps=2.8 q=-0.0 size=    2957kB time=00:00:04.16 bitrate=5812.6kbits/s speed=0.114x    frame=  103 fps=2.8 q=-0.0 size=    3357kB time=00:00:04.25 bitrate=6469.0kbits/s speed=0.114x    frame=  106 fps=2.8 q=-0.0 size=    3357kB time=00:00:04.37 bitrate=6284.2kbits/s speed=0.116x    frame=  108 fps=2.8 q=-0.0 size=    3357kB time=00:00:04.45 bitrate=6167.2kbits/s speed=0.116x    frame=  110 fps=2.8 q=-0.0 size=    3357kB time=00:00:04.54 bitrate=6053.2kbits/s speed=0.116x    frame=  112 fps=2.8 q=-0.0 size=    3357kB time=00:00:04.62 bitrate=5944.6kbits/s speed=0.117x    frame=  114 fps=2.8 q=-0.0 size=    3357kB time=00:00:04.70 bitrate=5839.8kbits/s speed=0.117x    frame=  117 fps=2.8 q=-0.0 size=    3758kB time=00:00:04.83 bitrate=6369.3kbits/s speed=0.117x    frame=  119 fps=2.9 q=-0.0 size=    3758kB time=00:00:04.91 bitrate=6260.5kbits/s speed=0.118x    frame=  121 fps=2.9 q=-0.0 size=    3758kB time=00:00:05.00 bitrate=6156.6kbits/s speed=0.118x    frame=  123 fps=2.9 q=-0.0 size=    3758kB time=00:00:05.08 bitrate=6056.1kbits/s speed=0.118x    frame=  125 fps=2.9 q=-0.0 size=    3758kB time=00:00:05.16 bitrate=5957.7kbits/s speed=0.119x    frame=  127 fps=2.9 q=-0.0 size=    4173kB time=00:00:05.25 bitrate=6511.0kbits/s speed=0.119x    frame=  129 fps=2.9 q=-0.0 size=    4268kB time=00:00:05.33 bitrate=6555.6kbits/s speed=0.118x    frame=  131 fps=2.9 q=-0.0 size=    4370kB time=00:00:05.41 bitrate=6607.3kbits/s speed=0.118x    frame=  133 fps=2.9 q=-0.0 size=    4483kB time=00:00:05.50 bitrate=6676.2kbits/s speed=0.118x    frame=  135 fps=2.8 q=-0.0 size=    4600kB time=00:00:05.58 bitrate=6749.0kbits/s speed=0.118x    frame=  137 fps=2.8 q=-0.0 size=    4657kB time=00:00:05.66 bitrate=6730.8kbits/s speed=0.118x    frame=  139 fps=2.8 q=-0.0 size=    4712kB time=00:00:05.75 bitrate=6711.3kbits/s speed=0.117x    frame=  141 fps=2.8 q=-0.0 size=    4712kB time=00:00:05.83 bitrate=6615.9kbits/s speed=0.117x    frame=  143 fps=2.8 q=-0.0 size=    4767kB time=00:00:05.91 bitrate=6598.6kbits/s speed=0.117x    frame=  145 fps=2.8 q=-0.0 size=    4767kB time=00:00:06.00 bitrate=6507.3kbits/s speed=0.117x    frame=  147 fps=2.8 q=-0.0 size=    4767kB time=00:00:06.08 bitrate=6418.5kbits/s speed=0.118x    frame=  149 fps=2.8 q=-0.0 size=    4767kB time=00:00:06.16 bitrate=6331.1kbits/s speed=0.118x    frame=  151 fps=2.9 q=-0.0 size=    4767kB time=00:00:06.25 bitrate=6247.1kbits/s speed=0.118x    frame=  153 fps=2.9 q=-0.0 size=    4767kB time=00:00:06.33 bitrate=6165.2kbits/s speed=0.118x    frame=  156 fps=2.9 q=-0.0 size=    5116kB time=00:00:06.45 bitrate=6488.7kbits/s speed=0.119x    frame=  158 fps=2.9 q=-0.0 size=    5170kB time=00:00:06.54 bitrate=6472.4kbits/s speed=0.119x    frame=  160 fps=2.9 q=-0.0 size=    5170kB time=00:00:06.62 bitrate=6391.3kbits/s speed=0.119x    frame=  162 fps=2.9 q=-0.0 size=    5170kB time=00:00:06.70 bitrate=6312.3kbits/s speed=0.119x    frame=  164 fps=2.9 q=-0.0 size=    5318kB time=00:00:06.79 bitrate=6413.7kbits/s speed=0.119x    frame=  166 fps=2.9 q=-0.0 size=    5318kB time=00:00:06.87 bitrate=6336.3kbits/s speed=0.12x    frame=  168 fps=2.9 q=-0.0 size=    5451kB time=00:00:06.95 bitrate=6416.8kbits/s speed=0.12x    frame=  170 fps=2.9 q=-0.0 size=    5521kB time=00:00:07.04 bitrate=6421.4kbits/s speed=0.12x    frame=  172 fps=2.9 q=-0.0 size=    5555kB time=00:00:07.12 bitrate=6386.5kbits/s speed=0.119x    frame=  174 fps=2.9 q=-0.0 size=    5624kB time=00:00:07.20 bitrate=6391.3kbits/s speed=0.119x    frame=  176 fps=2.9 q=-0.0 size=    5660kB time=00:00:07.29 bitrate=6357.4kbits/s speed=0.119x    frame=  178 fps=2.9 q=-0.0 size=    5694kB time=00:00:07.37 bitrate=6323.6kbits/s speed=0.119x    frame=  180 fps=2.9 q=-0.0 size=    5726kB time=00:00:07.45 bitrate=6288.9kbits/s speed=0.119x    frame=  182 fps=2.9 q=-0.0 size=    5726kB time=00:00:07.54 bitrate=6218.8kbits/s speed=0.119x    frame=  184 fps=2.9 q=-0.0 size=    5853kB time=00:00:07.62 bitrate=6287.0kbits/s speed=0.119x    frame=  186 fps=2.9 q=-0.0 size=    5853kB time=00:00:07.70 bitrate=6219.3kbits/s speed=0.12x    frame=  188 fps=2.9 q=-0.0 size=    5853kB time=00:00:07.79 bitrate=6152.3kbits/s speed=0.12x    frame=  190 fps=2.9 q=-0.0 size=    5853kB time=00:00:07.87 bitrate=6087.5kbits/s speed=0.12x    frame=  192 fps=2.9 q=-0.0 size=    5853kB time=00:00:07.95 bitrate=6024.0kbits/s speed=0.12x    frame=  194 fps=2.9 q=-0.0 size=    5853kB time=00:00:08.04 bitrate=5961.1kbits/s speed=0.12x    frame=  197 fps=2.9 q=-0.0 size=    6191kB time=00:00:08.16 bitrate=6209.3kbits/s speed=0.121x    frame=  199 fps=2.9 q=-0.0 size=    6222kB time=00:00:08.25 bitrate=6178.0kbits/s speed=0.121x    frame=  201 fps=2.9 q=-0.0 size=    6288kB time=00:00:08.33 bitrate=6180.8kbits/s speed=0.121x    frame=  203 fps=2.9 q=-0.0 size=    6363kB time=00:00:08.41 bitrate=6192.5kbits/s speed=0.121x    frame=  205 fps=2.9 q=-0.0 size=    6363kB time=00:00:08.50 bitrate=6132.0kbits/s speed=0.12x    frame=  207 fps=2.9 q=-0.0 size=    6437kB time=00:00:08.58 bitrate=6143.4kbits/s speed=0.121x    frame=  209 fps=2.9 q=-0.0 size=    6437kB time=00:00:08.66 bitrate=6083.9kbits/s speed=0.121x    frame=  211 fps=2.9 q=-0.0 size=    6514kB time=00:00:08.75 bitrate=6098.0kbits/s speed=0.121x    frame=  213 fps=2.9 q=-0.0 size=    6514kB time=00:00:08.83 bitrate=6040.7kbits/s speed=0.121x    frame=  215 fps=2.9 q=-0.0 size=    6514kB time=00:00:08.91 bitrate=5983.8kbits/s speed=0.121x    frame=  217 fps=2.9 q=-0.0 size=    6514kB time=00:00:09.00 bitrate=5928.6kbits/s speed=0.121x    frame=  219 fps=2.9 q=-0.0 size=    6514kB time=00:00:09.08 bitrate=5874.4kbits/s speed=0.121x    frame=  221 fps=2.9 q=-0.0 size=    6514kB time=00:00:09.16 bitrate=5820.6kbits/s speed=0.121x    frame=  224 fps=2.9 q=-0.0 size=    6832kB time=00:00:09.29 bitrate=6022.4kbits/s speed=0.122x    frame=  226 fps=2.9 q=-0.0 size=    6832kB time=00:00:09.37 bitrate=5969.1kbits/s speed=0.122x    frame=  228 fps=2.9 q=-0.0 size=    6832kB time=00:00:09.45 bitrate=5916.7kbits/s speed=0.122x    frame=  230 fps=2.9 q=-0.0 size=    6832kB time=00:00:09.54 bitrate=5864.6kbits/s speed=0.122x    frame=  232 fps=2.9 q=-0.0 size=    6832kB time=00:00:09.62 bitrate=5814.0kbits/s speed=0.122x    frame=  234 fps=3.0 q=-0.0 size=    7152kB time=00:00:09.70 bitrate=6034.5kbits/s speed=0.122x    frame=  237 fps=3.0 q=-0.0 size=    7152kB time=00:00:09.83 bitrate=5957.8kbits/s speed=0.123x    frame=  239 fps=3.0 q=-0.0 size=    7152kB time=00:00:09.91 bitrate=5907.4kbits/s speed=0.123x    frame=  241 fps=3.0 q=-0.0 size=    7152kB time=00:00:10.00 bitrate=5858.3kbits/s speed=0.123x    frame=  243 fps=3.0 q=-0.0 size=    7152kB time=00:00:10.08 bitrate=5810.1kbits/s speed=0.123x    frame=  245 fps=3.0 q=-0.0 size=    7152kB time=00:00:10.16 bitrate=5762.1kbits/s speed=0.123x    frame=  248 fps=3.0 q=-0.0 size=    7439kB time=00:00:10.29 bitrate=5920.3kbits/s speed=0.123x    frame=  250 fps=3.0 q=-0.0 size=    7439kB time=00:00:10.37 bitrate=5873.0kbits/s speed=0.123x    frame=  252 fps=3.0 q=-0.0 size=    7439kB time=00:00:10.45 bitrate=5826.4kbits/s speed=0.123x    frame=  254 fps=3.0 q=-0.0 size=    7439kB time=00:00:10.54 bitrate=5780.0kbits/s speed=0.123x    frame=  256 fps=3.0 q=-0.0 size=    7439kB time=00:00:10.62 bitrate=5734.8kbits/s speed=0.123x    frame=  258 fps=3.0 q=-0.0 size=    7730kB time=00:00:10.70 bitrate=5912.9kbits/s speed=0.124x    frame=  261 fps=3.0 q=-0.0 size=    7730kB time=00:00:10.83 bitrate=5844.7kbits/s speed=0.124x    frame=  263 fps=3.0 q=-0.0 size=    7730kB time=00:00:10.91 bitrate=5799.7kbits/s speed=0.124x    frame=  265 fps=3.0 q=-0.0 size=    7730kB time=00:00:11.00 bitrate=5756.0kbits/s speed=0.124x    frame=  267 fps=3.0 q=-0.0 size=    7730kB time=00:00:11.08 bitrate=5712.9kbits/s speed=0.124x    frame=  269 fps=3.0 q=-0.0 size=    7730kB time=00:00:11.16 bitrate=5669.9kbits/s speed=0.124x    frame=  272 fps=3.0 q=-0.0 size=    8037kB time=00:00:11.29 bitrate=5830.4kbits/s speed=0.125x    frame=  274 fps=3.0 q=-0.0 size=    8037kB time=00:00:11.37 bitrate=5787.9kbits/s speed=0.125x    frame=  276 fps=3.0 q=-0.0 size=    8037kB time=00:00:11.45 bitrate=5745.9kbits/s speed=0.125x    frame=  278 fps=3.0 q=-0.0 size=    8037kB time=00:00:11.54 bitrate=5704.1kbits/s speed=0.125x    frame=  280 fps=3.0 q=-0.0 size=    8037kB time=00:00:11.62 bitrate=5663.4kbits/s speed=0.125x    frame=  282 fps=3.0 q=-0.0 size=    8333kB time=00:00:11.70 bitrate=5830.4kbits/s speed=0.125x    frame=  285 fps=3.0 q=-0.0 size=    8333kB time=00:00:11.83 bitrate=5768.8kbits/s speed=0.126x    frame=  287 fps=3.0 q=-0.0 size=    8333kB time=00:00:11.91 bitrate=5728.1kbits/s speed=0.126x    frame=  289 fps=3.0 q=-0.0 size=    8333kB time=00:00:12.00 bitrate=5688.5kbits/s speed=0.126x    frame=  291 fps=3.0 q=-0.0 size=    8333kB time=00:00:12.08 bitrate=5649.5kbits/s speed=0.126x    frame=  293 fps=3.0 q=-0.0 size=    8333kB time=00:00:12.16 bitrate=5610.5kbits/s speed=0.126x    frame=  296 fps=3.0 q=-0.0 size=    8618kB time=00:00:12.29 bitrate=5743.3kbits/s speed=0.126x    frame=  298 fps=3.0 q=-0.0 size=    8618kB time=00:00:12.37 bitrate=5704.8kbits/s speed=0.127x    frame=  300 fps=3.0 q=-0.0 size=    8618kB time=00:00:12.45 bitrate=5666.8kbits/s speed=0.127x    frame=  302 fps=3.1 q=-0.0 size=    8618kB time=00:00:12.54 bitrate=5628.8kbits/s speed=0.127x    frame=  304 fps=3.1 q=-0.0 size=    8618kB time=00:00:12.62 bitrate=5591.8kbits/s speed=0.127x    frame=  306 fps=3.1 q=-0.0 size=    8831kB time=00:00:12.70 bitrate=5692.6kbits/s speed=0.127x    frame=  309 fps=3.1 q=-0.0 size=    8831kB time=00:00:12.83 bitrate=5637.2kbits/s speed=0.127x    frame=  311 fps=3.1 q=-0.0 size=    8831kB time=00:00:12.91 bitrate=5600.5kbits/s speed=0.127x    frame=  313 fps=3.1 q=-0.0 size=    8831kB time=00:00:13.00 bitrate=5564.8kbits/s speed=0.128x    frame=  315 fps=3.1 q=-0.0 size=    8831kB time=00:00:13.08 bitrate=5529.5kbits/s speed=0.128x    frame=  317 fps=3.1 q=-0.0 size=    8831kB time=00:00:13.16 bitrate=5494.2kbits/s speed=0.128x    frame=  320 fps=3.1 q=-0.0 size=    9024kB time=00:00:13.29 bitrate=5561.1kbits/s speed=0.128x    frame=  322 fps=3.1 q=-0.0 size=    9024kB time=00:00:13.37 bitrate=5526.6kbits/s speed=0.128x    frame=  324 fps=3.1 q=-0.0 size=    9024kB time=00:00:13.45 bitrate=5492.5kbits/s speed=0.128x    frame=  326 fps=3.1 q=-0.0 size=    9024kB time=00:00:13.54 bitrate=5458.4kbits/s speed=0.128x    frame=  328 fps=3.1 q=-0.0 size=    9024kB time=00:00:13.62 bitrate=5425.2kbits/s speed=0.128x    frame=  330 fps=3.1 q=-0.0 size=    9227kB time=00:00:13.70 bitrate=5513.9kbits/s speed=0.128x    frame=  333 fps=3.1 q=-0.0 size=    9227kB time=00:00:13.83 bitrate=5464.1kbits/s speed=0.129x    frame=  335 fps=3.1 q=-0.0 size=    9227kB time=00:00:13.91 bitrate=5431.1kbits/s speed=0.129x    frame=  337 fps=3.1 q=-0.0 size=    9227kB time=00:00:14.00 bitrate=5398.9kbits/s speed=0.129x    frame=  339 fps=3.1 q=-0.0 size=    9227kB time=00:00:14.08 bitrate=5367.1kbits/s speed=0.129x    frame=  341 fps=3.1 q=-0.0 size=    9227kB time=00:00:14.16 bitrate=5335.3kbits/s speed=0.129x    frame=  344 fps=3.1 q=-0.0 size=    9425kB time=00:00:14.29 bitrate=5402.1kbits/s speed=0.129x    frame=  346 fps=3.1 q=-0.0 size=    9425kB time=00:00:14.37 bitrate=5370.9kbits/s speed=0.13x    frame=  348 fps=3.1 q=-0.0 size=    9425kB time=00:00:14.45 bitrate=5340.1kbits/s speed=0.13x    frame=  350 fps=3.1 q=-0.0 size=    9425kB time=00:00:14.54 bitrate=5309.2kbits/s speed=0.13x    frame=  352 fps=3.1 q=-0.0 size=    9425kB time=00:00:14.62 bitrate=5279.1kbits/s speed=0.13x    frame=  354 fps=3.1 q=-0.0 size=    9613kB time=00:00:14.70 bitrate=5353.8kbits/s speed=0.13x    frame=  357 fps=3.1 q=-0.0 size=    9613kB time=00:00:14.83 bitrate=5308.7kbits/s speed=0.13x    frame=  359 fps=3.1 q=-0.0 size=    9613kB time=00:00:14.91 bitrate=5278.8kbits/s speed=0.13x    frame=  361 fps=3.1 q=-0.0 size=    9613kB time=00:00:15.00 bitrate=5249.6kbits/s speed=0.13x    frame=  363 fps=3.1 q=-0.0 size=    9776kB time=00:00:15.08 bitrate=5309.5kbits/s speed=0.13x    frame=  365 fps=3.1 q=-0.0 size=    9776kB time=00:00:15.16 bitrate=5280.1kbits/s speed=0.13x    frame=  367 fps=3.1 q=-0.0 size=    9776kB time=00:00:15.25 bitrate=5251.4kbits/s speed=0.13x    frame=  369 fps=3.1 q=-0.0 size=    9776kB time=00:00:15.33 bitrate=5223.0kbits/s speed=0.13x    frame=  371 fps=3.1 q=-0.0 size=    9776kB time=00:00:15.41 bitrate=5194.5kbits/s speed=0.131x    frame=  373 fps=3.1 q=-0.0 size=    9776kB time=00:00:15.50 bitrate=5166.7kbits/s speed=0.131x    frame=  375 fps=3.1 q=-0.0 size=   10008kB time=00:00:15.58 bitrate=5261.0kbits/s speed=0.131x    frame=  378 fps=3.2 q=-0.0 size=   10008kB time=00:00:15.70 bitrate=5219.2kbits/s speed=0.131x    frame=  380 fps=3.2 q=-0.0 size=   10008kB time=00:00:15.79 bitrate=5191.4kbits/s speed=0.131x    frame=  382 fps=3.2 q=-0.0 size=   10008kB time=00:00:15.87 bitrate=5164.3kbits/s speed=0.131x    frame=  384 fps=3.2 q=-0.0 size=   10008kB time=00:00:15.95 bitrate=5137.4kbits/s speed=0.131x    frame=  386 fps=3.2 q=-0.0 size=   10008kB time=00:00:16.04 bitrate=5110.5kbits/s speed=0.131x    frame=  389 fps=3.2 q=-0.0 size=   10239kB time=00:00:16.16 bitrate=5187.8kbits/s speed=0.131x    frame=  391 fps=3.2 q=-0.0 size=   10239kB time=00:00:16.25 bitrate=5161.3kbits/s speed=0.132x    frame=  393 fps=3.2 q=-0.0 size=   10239kB time=00:00:16.33 bitrate=5135.0kbits/s speed=0.132x    frame=  395 fps=3.2 q=-0.0 size=   10239kB time=00:00:16.41 bitrate=5108.8kbits/s speed=0.132x    frame=  397 fps=3.2 q=-0.0 size=   10239kB time=00:00:16.50 bitrate=5083.1kbits/s speed=0.132x    frame=  399 fps=3.2 q=-0.0 size=   10609kB time=00:00:16.58 bitrate=5240.5kbits/s speed=0.132x    frame=  402 fps=3.2 q=-0.0 size=   10609kB time=00:00:16.70 bitrate=5201.3kbits/s speed=0.132x    frame=  404 fps=3.2 q=-0.0 size=   10609kB time=00:00:16.79 bitrate=5175.3kbits/s speed=0.132x    frame=  406 fps=3.2 q=-0.0 size=   10609kB time=00:00:16.87 bitrate=5149.9kbits/s speed=0.132x    frame=  408 fps=3.2 q=-0.0 size=   10609kB time=00:00:16.95 bitrate=5124.7kbits/s speed=0.132x    frame=  410 fps=3.2 q=-0.0 size=   10609kB time=00:00:17.04 bitrate=5099.4kbits/s speed=0.132x    frame=  413 fps=3.2 q=-0.0 size=   10908kB time=00:00:17.16 bitrate=5204.7kbits/s speed=0.132x    frame=  415 fps=3.2 q=-0.0 size=   10908kB time=00:00:17.25 bitrate=5179.7kbits/s speed=0.132x    frame=  417 fps=3.2 q=-0.0 size=   10908kB time=00:00:17.33 bitrate=5154.9kbits/s speed=0.132x    frame=  419 fps=3.2 q=-0.0 size=   11045kB time=00:00:17.41 bitrate=5194.8kbits/s speed=0.133x    frame=  421 fps=3.2 q=-0.0 size=   11045kB time=00:00:17.50 bitrate=5170.2kbits/s speed=0.132x    frame=  423 fps=3.2 q=-0.0 size=   11045kB time=00:00:17.58 bitrate=5145.8kbits/s speed=0.132x    frame=  425 fps=3.2 q=-0.0 size=   11045kB time=00:00:17.66 bitrate=5121.3kbits/s speed=0.133x    frame=  427 fps=3.2 q=-0.0 size=   11045kB time=00:00:17.75 bitrate=5097.4kbits/s speed=0.133x    frame=  429 fps=3.2 q=-0.0 size=   11045kB time=00:00:17.83 bitrate=5073.6kbits/s speed=0.133x    frame=  431 fps=3.2 q=-0.0 size=   11414kB time=00:00:17.91 bitrate=5218.6kbits/s speed=0.133x    frame=  434 fps=3.2 q=-0.0 size=   11414kB time=00:00:18.04 bitrate=5182.4kbits/s speed=0.133x    frame=  436 fps=3.2 q=-0.0 size=   11414kB time=00:00:18.12 bitrate=5158.7kbits/s speed=0.133x    frame=  438 fps=3.2 q=-0.0 size=   11414kB time=00:00:18.20 bitrate=5135.2kbits/s speed=0.133x    frame=  440 fps=3.2 q=-0.0 size=   11414kB time=00:00:18.29 bitrate=5111.6kbits/s speed=0.133x    frame=  442 fps=3.2 q=-0.0 size=   11414kB time=00:00:18.37 bitrate=5088.5kbits/s speed=0.133x    frame=  445 fps=3.2 q=-0.0 size=   11634kB time=00:00:18.50 bitrate=5151.3kbits/s speed=0.133x    frame=  447 fps=3.2 q=-0.0 size=   11634kB time=00:00:18.58 bitrate=5128.3kbits/s speed=0.133x    frame=  449 fps=3.2 q=-0.0 size=   11634kB time=00:00:18.66 bitrate=5105.2kbits/s speed=0.133x    frame=  451 fps=3.2 q=-0.0 size=   11634kB time=00:00:18.75 bitrate=5082.6kbits/s speed=0.133x    frame=  453 fps=3.2 q=-0.0 size=   11634kB time=00:00:18.83 bitrate=5060.2kbits/s speed=0.133x    frame=  455 fps=3.2 q=-0.0 size=   11895kB time=00:00:18.91 bitrate=5150.9kbits/s speed=0.133x    frame=  458 fps=3.2 q=-0.0 size=   11895kB time=00:00:19.04 bitrate=5117.1kbits/s speed=0.134x    frame=  460 fps=3.2 q=-0.0 size=   11895kB time=00:00:19.12 bitrate=5094.9kbits/s speed=0.134x    frame=  462 fps=3.2 q=-0.0 size=   11895kB time=00:00:19.20 bitrate=5072.9kbits/s speed=0.134x    frame=  464 fps=3.2 q=-0.0 size=   11895kB time=00:00:19.29 bitrate=5050.8kbits/s speed=0.134x    frame=  466 fps=3.2 q=-0.0 size=   11895kB time=00:00:19.37 bitrate=5029.2kbits/s speed=0.134x    frame=  469 fps=3.2 q=-0.0 size=   12167kB time=00:00:19.50 bitrate=5111.1kbits/s speed=0.134x    frame=  471 fps=3.2 q=-0.0 size=   12167kB time=00:00:19.58 bitrate=5089.5kbits/s speed=0.134x    frame=  473 fps=3.2 q=-0.0 size=   12167kB time=00:00:19.66 bitrate=5067.7kbits/s speed=0.134x    frame=  475 fps=3.2 q=-0.0 size=   12167kB time=00:00:19.75 bitrate=5046.4kbits/s speed=0.134x    frame=  477 fps=3.2 q=-0.0 size=   12167kB time=00:00:19.83 bitrate=5025.3kbits/s speed=0.134x    frame=  479 fps=3.2 q=-0.0 size=   12434kB time=00:00:19.91 bitrate=5113.9kbits/s speed=0.134x    frame=  482 fps=3.2 q=-0.0 size=   12434kB time=00:00:20.04 bitrate=5082.0kbits/s speed=0.134x    frame=  484 fps=3.2 q=-0.0 size=   12434kB time=00:00:20.12 bitrate=5061.0kbits/s speed=0.134x    frame=  486 fps=3.2 q=-0.0 size=   12434kB time=00:00:20.20 bitrate=5040.3kbits/s speed=0.134x    frame=  488 fps=3.2 q=-0.0 size=   12434kB time=00:00:20.29 bitrate=5019.4kbits/s speed=0.134x    frame=  490 fps=3.2 q=-0.0 size=   12434kB time=00:00:20.37 bitrate=4998.9kbits/s speed=0.134x    frame=  493 fps=3.2 q=-0.0 size=   12704kB time=00:00:20.50 bitrate=5076.4kbits/s speed=0.134x    frame=  495 fps=3.2 q=-0.0 size=   12704kB time=00:00:20.58 bitrate=5055.9kbits/s speed=0.134x    frame=  497 fps=3.2 q=-0.0 size=   12704kB time=00:00:20.66 bitrate=5035.3kbits/s speed=0.134x    frame=  499 fps=3.2 q=-0.0 size=   12704kB time=00:00:20.75 bitrate=5015.2kbits/s speed=0.134x    frame=  500 fps=3.2 q=-0.0 size=   12704kB time=00:00:20.79 bitrate=5005.1kbits/s speed=0.134x    frame=  500 fps=3.2 q=-0.0 Lsize=   12974kB time=00:00:20.79 bitrate=5111.6kbits/s speed=0.134x    
video:12963kB audio:0kB subtitle:0kB other streams:0kB global headers:3kB muxing overhead: 0.087260%
bench: utime=138.964s
bench: maxrss=220524kB
